<svg width="250" height="150" viewBox="0 0 250 150" fill="none" xmlns="http://www.w3.org/2000/svg">
<rect width="250" height="150" fill="#344349"/>
<rect x="4" y="94" width="242" height="53" fill="white"/>
<path d="M70.7837 73.2773C68.0148 75.6595 64.9145 77.4876 61.4816 78.7603C58.0487 80.0367 54.4926 80.6713 50.8099 80.6713C47.9878 80.6713 45.2675 80.3043 42.6526 79.5737C40.0341 78.8397 37.5884 77.8001 35.3014 76.4539C33.0203 75.1149 30.9357 73.5011 29.0535 71.6162C27.1713 69.736 25.5566 67.651 24.2166 65.3695C22.8718 63.0809 21.8337 60.6359 21.1009 58.0134C20.3646 55.4015 20 52.6796 20 49.8558C20 47.032 20.3646 44.3064 21.1009 41.6721C21.8337 39.0425 22.8718 36.5869 24.2166 34.3053C25.5554 32.0167 27.1713 29.9353 29.0535 28.0504C30.9357 26.1702 33.0203 24.5564 35.3014 23.2126C37.5872 21.87 40.0341 20.8352 42.6526 20.1011C45.2663 19.367 47.9866 19 50.8099 19C54.4926 19 58.0499 19.6311 61.4816 20.8885C64.9145 22.1494 68.0148 23.9822 70.7837 26.3892L64.473 36.7763C62.7281 34.8926 60.6636 33.4458 58.2831 32.4323C55.9037 31.4271 53.4119 30.9192 50.8099 30.9192C48.208 30.9192 45.7174 31.4164 43.4197 32.4145C41.122 33.4126 39.1155 34.7588 37.4002 36.4649C35.6837 38.1639 34.326 40.1743 33.3316 42.4855C32.3337 44.7966 31.8353 47.2522 31.8353 49.8558C31.8353 52.4593 32.3337 54.9043 33.3316 57.1823C34.326 59.4709 35.6837 61.4706 37.4002 63.1874C39.1155 64.9054 41.122 66.2587 43.4197 67.2568C45.7174 68.2549 48.1796 68.7521 50.8099 68.7521C53.4403 68.7521 55.9037 68.2478 58.2831 67.2343C60.6636 66.2255 62.7281 64.7787 64.473 62.8973L70.7837 73.2761V73.2773Z" fill="white"/>
<path d="M199.625 55.353H187.708V79.3831H199.625V67.2686H217.479V55.353H203.922H199.625Z" fill="white"/>
<path d="M187.708 19.8312V31.8131H199.625V31.7491H229.395V19.8312H187.708Z" fill="white"/>
<path d="M179.05 37.3553C178.483 35.3331 177.682 33.4375 176.641 31.6651C175.606 29.8962 174.36 28.2824 172.905 26.8285C171.452 25.3746 169.847 24.1279 168.089 23.093C166.331 22.0511 164.443 21.2496 162.423 20.6813C160.403 20.1141 158.298 19.8312 156.112 19.8312H132.279V31.8131H144.194V31.7503H156.112C157.743 31.7503 159.281 32.0617 160.72 32.6809C162.16 33.3085 163.418 34.1574 164.5 35.2372C165.58 36.317 166.431 37.5814 167.053 39.0389C167.675 40.4893 167.986 42.0332 167.986 43.6683C167.986 45.3034 167.675 46.8473 167.053 48.2977C166.431 49.7516 165.58 51.0173 164.5 52.0994C163.419 53.1745 162.16 54.0282 160.72 54.6557C159.281 55.2749 157.744 55.5863 156.112 55.5863L132.279 55.6526V79.382H144.194V67.464L157.523 67.3823L162.714 79.382H175.378L168.776 63.809C170.491 62.7292 172.042 61.4576 173.427 59.9883C174.811 58.519 175.979 56.9135 176.936 55.1695C177.888 53.4267 178.624 51.5868 179.135 49.6462C179.646 47.7104 179.903 45.7142 179.903 43.6659C179.903 41.4779 179.619 39.374 179.052 37.3529L179.05 37.3553Z" fill="white"/>
<path d="M124.446 37.3553C123.88 35.3331 123.081 33.4375 122.04 31.6651C121.005 29.8962 119.758 28.2824 118.302 26.8285C116.852 25.3746 115.245 24.1279 113.487 23.093C111.729 22.0511 109.841 21.2496 107.82 20.6813C105.799 20.1141 103.696 19.8312 101.509 19.8312H77.6743V31.8131H89.5913V31.7503H101.509C103.143 31.7503 104.678 32.0617 106.118 32.6809C107.557 33.3085 108.818 34.1574 109.895 35.2372C110.976 36.317 111.824 37.5814 112.451 39.0389C113.073 40.4893 113.385 42.0332 113.385 43.6683C113.385 45.3034 113.071 46.8473 112.451 48.2977C111.824 49.7516 110.977 51.0173 109.895 52.0994C108.818 53.1745 107.557 54.0282 106.118 54.6557C104.678 55.2749 103.143 55.5863 101.509 55.5863L77.6743 55.546V79.3831H89.5913V67.4652H101.509C104.776 67.4652 107.853 66.8424 110.746 65.5957C113.64 64.3489 116.167 62.6464 118.325 60.488C120.485 58.3296 122.188 55.8029 123.432 52.9093C124.678 50.0156 125.301 46.9337 125.301 43.6683C125.301 41.4803 125.016 39.3764 124.446 37.3553Z" fill="white"/>
<path d="M222.37 101.165H225.107V109.347H229.55V111.65H222.37V101.165Z" fill="#344349"/>
<path d="M212.944 101.165H215.681V109.347H220.124V111.65H212.944V101.165Z" fill="#344349"/>
<path d="M203.788 101.165H206.6L210.998 111.65H208.081L205.119 103.902L202.098 111.65H199.286L203.788 101.165ZM201.978 107.701H208.096V109.765H201.978V107.701Z" fill="#344349"/>
<path d="M192.723 101.165C193.551 101.165 194.303 101.294 194.982 101.553C195.67 101.803 196.258 102.162 196.747 102.63C197.245 103.089 197.629 103.638 197.898 104.276C198.168 104.914 198.302 105.622 198.302 106.4C198.302 107.188 198.163 107.901 197.883 108.539C197.614 109.177 197.23 109.731 196.732 110.199C196.233 110.668 195.635 111.027 194.937 111.276C194.239 111.526 193.466 111.65 192.618 111.65H188.206V101.165H192.723ZM192.798 109.466C193.197 109.466 193.561 109.397 193.89 109.257C194.219 109.107 194.503 108.898 194.742 108.629C194.992 108.359 195.181 108.04 195.311 107.671C195.44 107.292 195.505 106.879 195.505 106.43C195.505 105.971 195.435 105.557 195.296 105.188C195.156 104.809 194.957 104.485 194.697 104.216C194.448 103.937 194.149 103.727 193.8 103.588C193.461 103.438 193.082 103.363 192.663 103.363H190.943V109.466H192.798Z" fill="#344349"/>
<path d="M175.449 101.165H177.857L183.347 108.494L182.629 108.733V101.165H185.157V111.65H182.764L177.274 104.351L178.007 104.111V111.65H175.449V101.165Z" fill="#344349"/>
<path d="M166.293 101.165H169.105L173.503 111.65H170.586L167.625 103.902L164.603 111.65H161.791L166.293 101.165ZM164.483 107.701H170.601V109.765H164.483V107.701Z" fill="#344349"/>
<path d="M155.773 101.165C157.169 101.165 158.246 101.489 159.004 102.137C159.762 102.775 160.141 103.678 160.141 104.844C160.141 106.071 159.762 107.028 159.004 107.716C158.246 108.394 157.169 108.733 155.773 108.733H153.799V111.65H151.062V101.165H155.773ZM155.773 106.579C156.342 106.579 156.776 106.44 157.075 106.161C157.384 105.881 157.538 105.468 157.538 104.919C157.538 104.391 157.384 103.992 157.075 103.722C156.776 103.453 156.342 103.319 155.773 103.319H153.799V106.579H155.773ZM155.295 107.731H157.957L160.455 111.65H157.359L155.295 107.731Z" fill="#344349"/>
<path d="M138.923 101.165C140.319 101.165 141.396 101.489 142.154 102.137C142.912 102.775 143.291 103.678 143.291 104.844C143.291 106.071 142.912 107.028 142.154 107.716C141.396 108.394 140.319 108.733 138.923 108.733H136.949V111.65H134.211V101.165H138.923ZM138.923 106.579C139.492 106.579 139.925 106.44 140.225 106.161C140.534 105.881 140.688 105.468 140.688 104.919C140.688 104.391 140.534 103.992 140.225 103.722C139.925 103.453 139.492 103.319 138.923 103.319H136.949V106.579H138.923ZM138.445 107.731H141.107L143.605 111.65H140.509L138.445 107.731Z" fill="#344349"/>
<path d="M123.12 101.165H131.392V103.319H125.858V105.323H130.854V107.462H125.858V109.496H131.542V111.65H123.12V101.165Z" fill="#344349"/>
<path d="M110.919 101.165H113.656V105.772L117.59 101.165H120.762L113.656 109.033V111.65H110.919V101.165ZM116.663 105.188L121.001 111.65H117.725L114.838 107.342L116.663 105.188Z" fill="#344349"/>
<path d="M103.809 101.165C105.205 101.165 106.282 101.489 107.04 102.137C107.798 102.775 108.177 103.678 108.177 104.844C108.177 106.071 107.798 107.028 107.04 107.716C106.282 108.394 105.205 108.733 103.809 108.733H101.835V111.65H99.0975V101.165H103.809ZM103.809 106.579C104.378 106.579 104.812 106.44 105.111 106.161C105.42 105.881 105.574 105.468 105.574 104.919C105.574 104.391 105.42 103.992 105.111 103.722C104.812 103.453 104.378 103.319 103.809 103.319H101.835V106.579H103.809ZM103.331 107.731H105.993L108.491 111.65H105.395L103.331 107.731Z" fill="#344349"/>
<path d="M89.9416 101.165H92.7537L97.1514 111.65H94.2346L91.2729 103.902L88.2513 111.65H85.4392L89.9416 101.165ZM88.1317 107.701H94.2495V109.765H88.1317V107.701Z" fill="#344349"/>
<path d="M80.7632 101.165C82.0995 101.165 83.1366 101.489 83.8745 102.137C84.6125 102.775 84.9814 103.678 84.9814 104.844C84.9814 106.071 84.6125 107.028 83.8745 107.716C83.1366 108.394 82.0995 108.733 80.7632 108.733H77.6968L78.8935 107.537V111.65H76.1561V101.165H80.7632ZM80.6286 106.579C81.187 106.579 81.6158 106.44 81.915 106.161C82.2241 105.881 82.3787 105.468 82.3787 104.919C82.3787 104.391 82.2241 103.992 81.915 103.722C81.6158 103.453 81.187 103.319 80.6286 103.319H77.6968L78.8935 102.122V107.776L77.6968 106.579H80.6286Z" fill="#344349"/>
<path d="M60.036 101.165H68.3079V103.319H62.7733V105.323H67.7694V107.462H62.7733V109.496H68.4574V111.65H60.036V101.165Z" fill="#344349"/>
<path d="M50.6102 101.165H53.3476V109.347H57.7901V111.65H50.6102V101.165Z" fill="#344349"/>
<path d="M42.5872 101C43.4049 101 44.1528 101.135 44.8309 101.404C45.519 101.673 46.1173 102.052 46.6259 102.541C47.1445 103.029 47.5433 103.603 47.8226 104.261C48.1118 104.909 48.2564 105.617 48.2564 106.385C48.2564 107.163 48.1118 107.886 47.8226 108.554C47.5433 109.212 47.1445 109.79 46.6259 110.289C46.1173 110.778 45.519 111.162 44.8309 111.441C44.1528 111.71 43.4049 111.845 42.5872 111.845C41.7795 111.845 41.0316 111.71 40.3435 111.441C39.6554 111.162 39.0521 110.778 38.5336 110.289C38.025 109.79 37.6261 109.212 37.3369 108.554C37.0577 107.886 36.9181 107.163 36.9181 106.385C36.9181 105.617 37.0577 104.904 37.3369 104.246C37.6261 103.588 38.025 103.019 38.5336 102.541C39.0521 102.052 39.6554 101.673 40.3435 101.404C41.0316 101.135 41.7795 101 42.5872 101ZM42.6171 103.289C42.2282 103.289 41.8543 103.368 41.4953 103.528C41.1463 103.678 40.8371 103.897 40.5679 104.186C40.3086 104.465 40.1042 104.794 39.9546 105.173C39.805 105.542 39.7302 105.951 39.7302 106.4C39.7302 106.839 39.805 107.252 39.9546 107.641C40.1042 108.02 40.3136 108.354 40.5828 108.644C40.8521 108.923 41.1612 109.142 41.5102 109.302C41.8593 109.461 42.2282 109.541 42.6171 109.541C43.006 109.541 43.37 109.461 43.7091 109.302C44.0581 109.142 44.3623 108.923 44.6215 108.644C44.8808 108.354 45.0802 108.02 45.2199 107.641C45.3694 107.252 45.4442 106.839 45.4442 106.4C45.4442 105.951 45.3694 105.542 45.2199 105.173C45.0802 104.794 44.8808 104.465 44.6215 104.186C44.3623 103.897 44.0581 103.678 43.7091 103.528C43.37 103.368 43.006 103.289 42.6171 103.289Z" fill="#344349"/>
<path d="M33.9963 104.68C33.6572 104.251 33.2533 103.912 32.7847 103.663C32.316 103.413 31.8523 103.289 31.3936 103.289C30.9947 103.289 30.6207 103.368 30.2717 103.528C29.9227 103.678 29.6185 103.892 29.3592 104.171C29.1 104.44 28.9005 104.764 28.7609 105.143C28.6213 105.512 28.5515 105.916 28.5515 106.355C28.5515 106.794 28.6213 107.203 28.7609 107.582C28.9005 107.951 29.1 108.275 29.3592 108.554C29.6185 108.833 29.9227 109.052 30.2717 109.212C30.6207 109.362 30.9947 109.436 31.3936 109.436C31.8323 109.436 32.2811 109.327 32.7398 109.107C33.2085 108.878 33.6273 108.574 33.9963 108.195L35.5968 109.885C35.2178 110.284 34.789 110.633 34.3104 110.932C33.8317 111.221 33.3281 111.446 32.7996 111.605C32.2811 111.765 31.7625 111.845 31.244 111.845C30.4562 111.845 29.7282 111.71 29.0601 111.441C28.392 111.162 27.8086 110.778 27.31 110.289C26.8214 109.79 26.4374 109.212 26.1582 108.554C25.879 107.886 25.7394 107.163 25.7394 106.385C25.7394 105.617 25.879 104.909 26.1582 104.261C26.4374 103.603 26.8313 103.029 27.3399 102.541C27.8485 102.052 28.4418 101.673 29.1199 101.404C29.808 101.135 30.5509 101 31.3487 101C31.8672 101 32.3858 101.075 32.9043 101.224C33.4229 101.364 33.9115 101.568 34.3702 101.838C34.8289 102.107 35.2328 102.426 35.5818 102.795L33.9963 104.68Z" fill="#344349"/>
<path d="M211.63 121.492H215.896L225.62 134.475L224.348 134.899V121.492H228.826V140.065H224.586L214.863 127.135L216.161 126.711V140.065H211.63V121.492Z" fill="#344349"/>
<path d="M196.536 121.2C197.984 121.2 199.309 121.439 200.51 121.916C201.729 122.393 202.789 123.064 203.69 123.929C204.608 124.795 205.315 125.811 205.809 126.976C206.322 128.125 206.578 129.379 206.578 130.739C206.578 132.117 206.322 133.397 205.809 134.581C205.315 135.746 204.608 136.771 203.69 137.654C202.789 138.52 201.729 139.2 200.51 139.694C199.309 140.171 197.984 140.41 196.536 140.41C195.105 140.41 193.78 140.171 192.562 139.694C191.343 139.2 190.274 138.52 189.356 137.654C188.455 136.771 187.748 135.746 187.236 134.581C186.741 133.397 186.494 132.117 186.494 130.739C186.494 129.379 186.741 128.116 187.236 126.95C187.748 125.784 188.455 124.777 189.356 123.929C190.274 123.064 191.343 122.393 192.562 121.916C193.78 121.439 195.105 121.2 196.536 121.2ZM196.589 125.254C195.9 125.254 195.238 125.396 194.602 125.678C193.984 125.943 193.436 126.332 192.959 126.844C192.5 127.339 192.138 127.921 191.873 128.593C191.608 129.246 191.475 129.97 191.475 130.765C191.475 131.542 191.608 132.276 191.873 132.964C192.138 133.636 192.509 134.227 192.986 134.74C193.462 135.234 194.01 135.623 194.628 135.905C195.247 136.188 195.9 136.329 196.589 136.329C197.278 136.329 197.923 136.188 198.523 135.905C199.141 135.623 199.68 135.234 200.139 134.74C200.599 134.227 200.952 133.636 201.199 132.964C201.464 132.276 201.597 131.542 201.597 130.765C201.597 129.97 201.464 129.246 201.199 128.593C200.952 127.921 200.599 127.339 200.139 126.844C199.68 126.332 199.141 125.943 198.523 125.678C197.923 125.396 197.278 125.254 196.589 125.254Z" fill="#344349"/>
<path d="M176.575 121.492H181.424V140.065H176.575V121.492Z" fill="#344349"/>
<path d="M156.035 121.492H171.959V125.413H166.395V140.065H161.546V125.413H156.035V121.492Z" fill="#344349"/>
<path d="M142.542 121.492H147.523L155.312 140.065H150.146L144.9 126.341L139.548 140.065H134.566L142.542 121.492ZM139.336 133.07H150.172V136.727H139.336V133.07Z" fill="#344349"/>
<path d="M122.059 121.492C123.525 121.492 124.859 121.721 126.06 122.181C127.279 122.622 128.321 123.258 129.186 124.088C130.07 124.901 130.75 125.872 131.227 127.003C131.704 128.133 131.942 129.388 131.942 130.765C131.942 132.161 131.695 133.424 131.2 134.554C130.723 135.685 130.043 136.665 129.16 137.495C128.277 138.325 127.217 138.961 125.981 139.403C124.744 139.844 123.375 140.065 121.874 140.065H114.057V121.492H122.059ZM122.192 136.197C122.898 136.197 123.543 136.073 124.126 135.826C124.709 135.561 125.212 135.19 125.636 134.713C126.078 134.236 126.413 133.671 126.643 133.017C126.873 132.346 126.987 131.613 126.987 130.818C126.987 130.006 126.864 129.273 126.616 128.619C126.369 127.948 126.016 127.374 125.557 126.897C125.115 126.402 124.585 126.031 123.967 125.784C123.366 125.519 122.695 125.387 121.953 125.387H118.906V136.197H122.192Z" fill="#344349"/>
<path d="M90.5786 121.492H94.8444L104.568 134.475L103.296 134.899V121.492H107.774V140.065H103.535L93.8111 127.135L95.1094 126.711V140.065H90.5786V121.492Z" fill="#344349"/>
<path d="M72.6141 132.408C72.6141 133.609 72.9585 134.563 73.6474 135.27C74.354 135.976 75.2283 136.329 76.2705 136.329C77.3126 136.329 78.1517 135.985 78.7875 135.296C79.4411 134.589 79.7679 133.627 79.7679 132.408V121.492H84.6166V132.408C84.6166 134.033 84.2721 135.446 83.5832 136.647C82.912 137.848 81.9493 138.776 80.6952 139.429C79.4411 140.083 77.9573 140.41 76.244 140.41C74.5306 140.41 73.038 140.083 71.7662 139.429C70.4944 138.776 69.5053 137.848 68.7987 136.647C68.1098 135.446 67.7654 134.033 67.7654 132.408V121.492H72.6141V132.408Z" fill="#344349"/>
<path d="M52.9882 121.2C54.4367 121.2 55.7614 121.439 56.9626 121.916C58.1814 122.393 59.2412 123.064 60.142 123.929C61.0606 124.795 61.7671 125.811 62.2617 126.976C62.7739 128.125 63.0301 129.379 63.0301 130.739C63.0301 132.117 62.7739 133.397 62.2617 134.581C61.7671 135.746 61.0606 136.771 60.142 137.654C59.2412 138.52 58.1814 139.2 56.9626 139.694C55.7614 140.171 54.4367 140.41 52.9882 140.41C51.5575 140.41 50.2327 140.171 49.0139 139.694C47.7951 139.2 46.7264 138.52 45.8079 137.654C44.9071 136.771 44.2005 135.746 43.6883 134.581C43.1937 133.397 42.9464 132.117 42.9464 130.739C42.9464 129.379 43.1937 128.116 43.6883 126.95C44.2005 125.784 44.9071 124.777 45.8079 123.929C46.7264 123.064 47.7951 122.393 49.0139 121.916C50.2327 121.439 51.5575 121.2 52.9882 121.2ZM53.0412 125.254C52.3523 125.254 51.69 125.396 51.0541 125.678C50.4358 125.943 49.8883 126.332 49.4113 126.844C48.9521 127.339 48.59 127.921 48.325 128.593C48.0601 129.246 47.9276 129.97 47.9276 130.765C47.9276 131.542 48.0601 132.276 48.325 132.964C48.59 133.636 48.9609 134.227 49.4378 134.74C49.9147 135.234 50.4623 135.623 51.0806 135.905C51.6988 136.188 52.3523 136.329 53.0412 136.329C53.7301 136.329 54.3748 136.188 54.9754 135.905C55.5936 135.623 56.1324 135.234 56.5916 134.74C57.0509 134.227 57.4042 133.636 57.6515 132.964C57.9164 132.276 58.0489 131.542 58.0489 130.765C58.0489 129.97 57.9164 129.246 57.6515 128.593C57.4042 127.921 57.0509 127.339 56.5916 126.844C56.1324 126.332 55.5936 125.943 54.9754 125.678C54.3748 125.396 53.7301 125.254 53.0412 125.254Z" fill="#344349"/>
<path d="M25.3955 121.492H39.2792L39.2527 125.307H30.2442V129.52H38.5638V133.309H30.2442V140.065H25.3955V121.492Z" fill="#344349"/>
</svg>
